<?xml version="1.0" standalone="no"?>
<!DOCTYPE svg PUBLIC "-//W3C//DTD SVG 20010904//EN"
 "http://www.w3.org/TR/2001/REC-SVG-20010904/DTD/svg10.dtd">
<svg version="1.0" xmlns="http://www.w3.org/2000/svg"
 width="159.000000pt" height="159.000000pt" viewBox="0 0 159.000000 159.000000"
 preserveAspectRatio="xMidYMid meet">
<metadata>
Created by potrace 1.14, written by Peter Selinger 2001-2017
</metadata>
<g transform="translate(0.000000,159.000000) scale(0.100000,-0.100000)"
fill="#000000" stroke="none">
<path d="M540 1500 l0 -40 -85 0 -85 0 0 -40 0 -40 -40 0 -40 0 0 -45 0 -45
-46 0 -46 0 4 -40 4 -40 -43 0 -43 0 0 -82 0 -83 -37 0 -38 0 -3 -252 -2 -253
40 0 40 0 0 -79 0 -80 42 -3 c41 -3 42 -3 42 -43 1 -40 1 -40 44 -43 42 -3 42
-3 42 -43 0 -39 0 -39 40 -39 l40 0 0 -40 0 -40 85 0 85 0 0 -45 0 -45 250 0
250 0 0 45 0 45 85 0 85 0 0 40 0 40 40 0 c40 0 40 0 40 39 0 40 0 40 43 43
42 3 42 3 45 46 3 42 3 42 43 42 l39 0 0 80 0 80 40 0 40 0 -2 253 -3 252 -37
0 -38 -1 0 83 0 83 -40 0 -40 0 0 40 0 40 -45 0 -45 0 0 45 0 45 -40 0 -40 0
0 40 0 40 -85 0 -85 0 0 40 0 40 -250 0 -250 0 0 -40z"/>
</g>
</svg>
